<svg width="356" height="138" viewBox="0 0 356 138" fill="none" xmlns="http://www.w3.org/2000/svg">
<path d="M50.688 30.952C50.6027 30.8667 49.7493 30.824 48.128 30.824C43.1787 30.824 38.4 31.8053 33.792 33.768C29.2693 35.6453 25.2587 38.3333 21.76 41.832C18.2613 45.3307 15.5733 49.2987 13.696 53.736C11.648 58.344 10.624 63.208 10.624 68.328C10.624 73.2773 11.6053 78.056 13.568 82.664C15.5307 87.272 18.176 91.24 21.504 94.568C24.9173 98.0667 28.8853 100.755 33.408 102.632C37.8453 104.68 42.752 105.704 48.128 105.704H50.688V113.512C50.6027 113.597 49.7493 113.64 48.128 113.64C41.8987 113.64 36.096 112.445 30.72 110.056C27.9893 108.861 25.3867 107.453 22.912 105.832C20.5227 104.211 18.304 102.333 16.256 100.2C14.1227 98.152 12.2453 95.9333 10.624 93.544C9.00267 91.0693 7.59467 88.4667 6.4 85.736C4.01067 80.36 2.816 74.5573 2.816 68.328C2.816 62.0133 4.01067 56.168 6.4 50.792C8.61867 45.416 11.8187 40.5947 16 36.328C20.0107 32.3173 24.832 29.0747 30.464 26.6C35.84 24.2107 41.728 23.016 48.128 23.016C49.7493 23.016 50.6027 23.0587 50.688 23.144V30.952ZM74.019 40.168L92.195 113H84.259L81.827 103.016H62.755L60.323 113H52.387L70.435 40.168H74.019ZM79.779 95.336L72.227 64.872L64.675 95.336H79.779ZM131.022 47.976H106.574V60.008H125.262V67.688H106.574V113H98.894V40.168H131.022V47.976ZM138.644 40.168H170.9V47.976H146.452V60.008H165.14V67.688H146.452V105.32H170.9V113H138.644V40.168ZM186.065 113V47.976H173.777V40.168H205.905V47.976H193.745V113H186.065ZM213.144 40.168H245.4V47.976H220.952V60.008H239.64V67.688H220.952V105.32H245.4V113H213.144V40.168ZM260.949 40.04C264.106 40.2107 267.178 40.9787 270.165 42.344C271.616 43.0267 272.938 43.8373 274.133 44.776C275.328 45.7147 276.48 46.7387 277.589 47.848C279.637 50.152 281.301 52.7547 282.581 55.656C283.776 58.728 284.373 61.7573 284.373 64.744C284.373 66.9627 284.032 69.3093 283.349 71.784C282.581 74.2587 281.557 76.4347 280.277 78.312C279.594 79.2507 278.869 80.1893 278.101 81.128C277.333 81.9813 276.48 82.792 275.541 83.56C273.749 85.096 271.744 86.3333 269.525 87.272C269.696 87.6133 269.909 87.9547 270.165 88.296C270.421 88.552 270.677 88.8933 270.933 89.32C271.189 89.7467 271.445 90.216 271.701 90.728C272.042 91.1547 272.384 91.6667 272.725 92.264L275.797 98.28C277.76 102.12 280.789 104.637 284.885 105.832V113.64C283.434 113.213 282.154 112.787 281.045 112.36C280.021 111.933 279.082 111.507 278.229 111.08C276.522 110.397 275.157 109.629 274.133 108.776C273.109 108.093 272.256 107.155 271.573 105.96C271.232 105.363 270.89 104.765 270.549 104.168C270.208 103.485 269.866 102.717 269.525 101.864L268.245 98.792C268.074 98.4507 267.861 98.0667 267.605 97.64C267.434 97.2133 267.178 96.7013 266.837 96.104C266.154 94.9947 265.258 93.7147 264.149 92.264L262.485 90.6L261.589 89.704C261.418 89.6187 261.29 89.5333 261.205 89.448C261.12 89.3627 260.992 89.2773 260.821 89.192H261.077V112.872H253.269V40.04H260.949ZM260.949 81.768C262.997 81.5973 264.96 81.0853 266.837 80.232C268.714 79.3787 270.421 78.184 271.957 76.648C273.493 75.112 274.688 73.3627 275.541 71.4C276.394 69.608 276.821 67.3893 276.821 64.744C276.821 62.5253 276.437 60.392 275.669 58.344C274.73 56.296 273.578 54.5467 272.213 53.096C270.762 51.56 269.098 50.28 267.221 49.256C266.282 48.8293 265.258 48.488 264.149 48.232C263.125 47.8907 262.058 47.6773 260.949 47.592V81.768ZM301.196 40.168V113H293.516V40.168H301.196ZM314.802 23.528H353.586V31.592H322.994V48.36H346.418V56.424H322.994V104.936H353.586V113H314.802V23.528Z" fill="white"/>
<path d="M176.8 25H167.728V4.516H169.924V22.84H176.8V25ZM183.373 4.516L188.485 25H186.253L185.569 22.192H180.205L179.521 25H177.289L182.365 4.516H183.373ZM184.993 20.032L182.869 11.464L180.745 20.032H184.993Z" fill="white"/>
<line x1="83" y1="23.5" x2="158" y2="23.5" stroke="white" stroke-width="3"/>
<line x1="197" y1="23.5" x2="272" y2="23.5" stroke="white" stroke-width="3"/>
</svg>
