<svg width="44" height="44" viewBox="0 0 44 44" fill="none" xmlns="http://www.w3.org/2000/svg">
<path d="M42.2297 13.3546L37.0391 18.528C36.0078 30.5421 25.8672 39.8749 13.75 39.8749C11.2578 39.8749 9.19531 39.4796 7.63125 38.7062C6.37656 38.0702 5.86094 37.3999 5.72344 37.1937C5.60967 37.0209 5.53637 36.8246 5.50898 36.6196C5.48159 36.4145 5.50083 36.2059 5.56526 36.0093C5.62969 35.8127 5.73765 35.6332 5.88109 35.4841C6.02454 35.3351 6.19978 35.2203 6.39375 35.1484C6.42813 35.1312 10.4844 33.5843 13.1141 30.6109C11.4832 29.4497 10.0498 28.0336 8.86875 26.4171C6.51406 23.2202 4.02187 17.6687 5.51719 9.38429C5.56419 9.13801 5.67684 8.90898 5.84323 8.72142C6.00962 8.53385 6.22357 8.3947 6.4625 8.31867C6.70219 8.24018 6.95884 8.22914 7.20438 8.28673C7.44993 8.34433 7.6749 8.46835 7.85469 8.64523C7.90625 8.71398 13.6297 14.3515 20.625 16.1734V15.1249C20.6317 14.0347 20.8532 12.9566 21.2766 11.9519C21.7 10.9473 22.3172 10.036 23.0929 9.26988C23.8685 8.50379 24.7875 7.89799 25.7973 7.48706C26.8071 7.07613 27.8879 6.86812 28.9781 6.87492C30.409 6.89532 31.8101 7.28601 33.0451 8.00891C34.28 8.73182 35.3067 9.76228 36.025 10.9999H41.25C41.5215 10.9991 41.7871 11.0786 42.0134 11.2285C42.2398 11.3783 42.4167 11.5919 42.5219 11.8421C42.6209 12.0961 42.6461 12.3729 42.5944 12.6406C42.5427 12.9082 42.4162 13.1558 42.2297 13.3546V13.3546Z" fill="#63B4FF"/>
</svg>
