<svg width="44" height="44" viewBox="0 0 44 44" fill="none" xmlns="http://www.w3.org/2000/svg">
<path d="M40.2703 11.997C40.1123 11.3633 39.8031 10.7774 39.369 10.2895C38.935 9.80154 38.3891 9.42613 37.7781 9.19541C31.9 6.92666 22.5156 6.94385 22 6.94385C21.4844 6.94385 12.1 6.92666 6.22188 9.19541C5.61093 9.42613 5.06504 9.80154 4.63098 10.2895C4.19693 10.7774 3.88766 11.3633 3.72969 11.997C3.28281 13.6985 2.75 16.8267 2.75 22.0001C2.75 27.1735 3.28281 30.3017 3.72969 32.0032C3.88766 32.6369 4.19693 33.2228 4.63098 33.7107C5.06504 34.1987 5.61093 34.5741 6.22188 34.8048C11.8594 36.9876 20.6938 37.0564 21.8797 37.0564H22.1203C23.3062 37.0564 32.1406 36.9876 37.7781 34.8048C38.3891 34.5741 38.935 34.1987 39.369 33.7107C39.8031 33.2228 40.1123 32.6369 40.2703 32.0032C40.7172 30.3017 41.25 27.1735 41.25 22.0001C41.25 16.8267 40.7172 13.6985 40.2703 11.997ZM27.8781 22.5673L19.6281 28.0673C19.5187 28.1478 19.3858 28.1901 19.25 28.1876C19.1361 28.1834 19.0246 28.154 18.9234 28.1017C18.8136 28.0445 18.7217 27.9581 18.658 27.8519C18.5943 27.7457 18.5612 27.6239 18.5625 27.5001V16.5001C18.5612 16.3763 18.5943 16.2545 18.658 16.1483C18.7217 16.0421 18.8136 15.9557 18.9234 15.8985C19.033 15.8401 19.1564 15.8124 19.2805 15.8184C19.4046 15.8245 19.5247 15.8641 19.6281 15.9329L27.8781 21.4329C27.974 21.4933 28.053 21.577 28.1077 21.6762C28.1625 21.7754 28.1912 21.8868 28.1912 22.0001C28.1912 22.1134 28.1625 22.2248 28.1077 22.324C28.053 22.4232 27.974 22.5069 27.8781 22.5673Z" fill="#FF0000"/>
</svg>
